<svg xmlns="http://www.w3.org/2000/svg" width="57" height="42" viewBox="0 0 57 42"><g><g><g><path fill="#b5b5b5" d="M27.52 10.415l2.93-.346C29.436 1.245 22.61-.375 18.736.065c-5.477.614-9.303 5.333-9.303 11.47 0 .1 0 .202.006.303C4.209 11.993 0 16.343 0 21.663c0 5.422 4.363 9.831 9.728 9.831.707 0 2.004 0 3.702.006l.006-2.979c-1.704-.006-3.007-.006-3.708-.006-3.738 0-6.78-3.074-6.78-6.852 0-3.777 3.042-6.851 6.78-6.851a6 6 0 0 1 .955.077l.218.036c.49.083.996-.09 1.332-.459.342-.37.472-.888.348-1.382a6.247 6.247 0 0 1-.2-1.55c0-4.64 2.682-8.06 6.679-8.507 1.256-.143 7.558-.447 8.46 7.388z"/></g><g><path fill="#b5b5b5" d="M47.323 13.212c-.526 0-1.04.041-1.555.124-.26-3.152-1.815-5.986-4.35-7.875-2.976-2.213-6.975-2.88-10.968-1.812l.799 2.845c3.073-.82 6.11-.342 8.33 1.31 2.033 1.512 3.2 3.88 3.2 6.482 0 .278-.024.567-.048.886a1.463 1.463 0 0 0 .623 1.316c.43.301.986.36 1.476.16a6.482 6.482 0 0 1 2.487-.496c3.503 0 6.352 2.78 6.352 6.198 0 3.418-2.85 6.199-6.352 6.199-.702 0-2.323 0-4.525-.006l-.006 2.951c2.208.006 3.829.006 4.537.006 5.172 0 9.377-4.103 9.377-9.15 0-5.035-4.205-9.138-9.377-9.138z"/></g><g><path fill="#b5b5b5" d="M33.808 38.885H21.842v-8.48h11.966zM35.28 27.3H20.371c-.812 0-1.471.696-1.471 1.553v11.594c0 .857.659 1.553 1.47 1.553h14.91c.811 0 1.47-.696 1.47-1.553V28.853c0-.857-.659-1.553-1.47-1.553z"/></g><g><path fill="#b5b5b5" d="M19.95 25.2h3.116c0-2.45 2.132-4.44 4.756-4.44s4.762 1.99 4.762 4.44H35.7c0-4.056-3.534-7.35-7.878-7.35-4.338 0-7.872 3.3-7.872 7.35z"/></g><g><path fill="#b5b5b5" d="M26.25 32.55h3.15v4.2h-3.15z"/></g></g></g></svg>