<svg id="update_chart_update_increase_up_chart_graph_woman" data-name="update chart, update, increase, up, chart, graph, woman" xmlns="http://www.w3.org/2000/svg" width="647" height="529.25" viewBox="0 0 647 529.25">
  <path id="Path" d="M367.607,230.594H328.823V214.177H289.2v-19.4l-29.51-26.12H215V93.283H156.823V0L83.471,64.925V188.8H44.686v54.874H28.666V228.355H0V259H387V247.758Z" transform="translate(19 269)" fill="#f4f4f4"/>
  <g id="Group" transform="translate(180 381)">
    <path id="Path-2" data-name="Path" d="M0,0H5.337V4.69H0Z" transform="translate(0.253 0.643)" fill="#fff"/>
    <path id="Path-3" data-name="Path" d="M0,0H5.337V4.69H0Z" transform="translate(13.238 0.643)" fill="#fff"/>
    <path id="Path-4" data-name="Path" d="M0,0H5.337V4.69H0Z" transform="translate(26.224 0.643)" fill="#fff"/>
    <path id="Path-5" data-name="Path" d="M0,0H5.337V4.69H0Z" transform="translate(0.253 13.288)" fill="#fff"/>
    <path id="Path-6" data-name="Path" d="M0,0H5.337V4.69H0Z" transform="translate(13.238 13.288)" fill="#fff"/>
    <path id="Path-7" data-name="Path" d="M0,0H5.337V4.69H0Z" transform="translate(26.224 13.288)" fill="#fff"/>
    <path id="Path-8" data-name="Path" d="M0,0H5.337V4.69H0Z" transform="translate(0.253 25.933)" fill="#fff"/>
    <path id="Path-9" data-name="Path" d="M0,0H5.337V4.69H0Z" transform="translate(13.238 25.933)" fill="#fff"/>
    <path id="Path-10" data-name="Path" d="M0,0H5.337V4.69H0Z" transform="translate(26.224 25.933)" fill="#fff"/>
    <path id="Path-11" data-name="Path" d="M0,0H5.337V4.69H0Z" transform="translate(0.253 38.579)" fill="#fff"/>
    <path id="Path-12" data-name="Path" d="M0,0H5.337V4.69H0Z" transform="translate(13.238 38.579)" fill="#fff"/>
    <path id="Path-13" data-name="Path" d="M0,0H5.337V4.69H0Z" transform="translate(26.224 38.579)" fill="#fff"/>
    <path id="Path-14" data-name="Path" d="M0,0H5.337V4.69H0Z" transform="translate(0.253 51.224)" fill="#fff"/>
    <path id="Path-15" data-name="Path" d="M0,0H5.337V4.69H0Z" transform="translate(13.238 51.224)" fill="#fff"/>
    <path id="Path-16" data-name="Path" d="M0,0H5.337V4.69H0Z" transform="translate(26.224 51.224)" fill="#fff"/>
    <path id="Path-17" data-name="Path" d="M0,0H5.337V4.69H0Z" transform="translate(0.253 63.869)" fill="#fff"/>
    <path id="Path-18" data-name="Path" d="M0,0H5.337V4.69H0Z" transform="translate(13.238 63.869)" fill="#fff"/>
    <path id="Path-19" data-name="Path" d="M0,0H5.337V4.69H0Z" transform="translate(26.224 63.869)" fill="#fff"/>
    <path id="Path-20" data-name="Path" d="M0,0H5.337V4.69H0Z" transform="translate(0.253 76.515)" fill="#fff"/>
    <path id="Path-21" data-name="Path" d="M0,0H5.337V4.69H0Z" transform="translate(13.238 76.515)" fill="#fff"/>
    <path id="Path-22" data-name="Path" d="M0,0H5.337V4.69H0Z" transform="translate(26.224 76.515)" fill="#fff"/>
    <path id="Path-23" data-name="Path" d="M0,0H5.337V4.69H0Z" transform="translate(0.253 89.16)" fill="#fff"/>
    <path id="Path-24" data-name="Path" d="M0,0H5.337V4.69H0Z" transform="translate(13.238 89.16)" fill="#fff"/>
    <path id="Path-25" data-name="Path" d="M0,0H5.337V4.69H0Z" transform="translate(26.224 89.16)" fill="#fff"/>
    <path id="Path-26" data-name="Path" d="M0,0H5.337V4.69H0Z" transform="translate(0.253 101.805)" fill="#fff"/>
    <path id="Path-27" data-name="Path" d="M0,0H5.337V4.69H0Z" transform="translate(13.238 101.805)" fill="#fff"/>
    <path id="Path-28" data-name="Path" d="M0,0H5.337V4.69H0Z" transform="translate(26.224 101.805)" fill="#fff"/>
  </g>
  <path id="Path-29" data-name="Path" d="M0,.5H424" transform="translate(0 528)" fill="none" stroke="#000639" stroke-miterlimit="10" stroke-width="1.5"/>
  <path id="Path-30" data-name="Path" d="M73.114,4.073S181.883,52.719,244.4,145.129H264L225.741,189,104.432,107.792s-74.652-11.255-97.047-28S20.672,0,20.672,0" transform="translate(247 207)" fill="#e2e2e2"/>
  <path id="Path-31" data-name="Path" d="M92,4.967,19.4,0,6.2,5.369,0,322H67.428L60.3,309.24Z" transform="translate(212 205)" fill="#edeeef"/>
  <path id="Path-32" data-name="Path" d="M0,14.327V25.8A19.278,19.278,0,0,0,14.7,44.513L33,49V4.145L17.786.414A14.352,14.352,0,0,0,0,14.327Z" transform="translate(250 43)" fill="#edeeef"/>
  <path id="Path-33" data-name="Path" d="M0,0A19.145,19.145,0,0,0,14.7,18.552L33,23" transform="translate(250 68)" fill="none" stroke="#000639" stroke-miterlimit="10" stroke-width="1.5"/>
  <circle id="Oval" cx="1" cy="1" r="1" transform="translate(268 64)" fill="#000639"/>
  <circle id="Oval-2" data-name="Oval" cx="1" cy="1" r="1" transform="translate(254 64)" fill="#000639"/>
  <path id="Path-34" data-name="Path" d="M.5,14V0" transform="translate(259 57)" fill="none" stroke="#000639" stroke-miterlimit="10" stroke-width="1.5"/>
  <path id="Path-35" data-name="Path" d="M.5.5h0" transform="translate(250 54)" fill="none" stroke="#000" stroke-miterlimit="10" stroke-width="1.5"/>
  <path id="Path-36" data-name="Path" d="M0,2.3V7A5.236,5.236,0,0,0,3.536,5.656,4.406,4.406,0,0,0,5,2.411q0-.211-.02-.418C4.7-.856,0-.56,0,2.3Z" transform="translate(280 62)" fill="#edeeef"/>
  <g id="Group-2" data-name="Group" transform="translate(258 63)">
    <path id="Path-37" data-name="Path" d="M0,4.66A4.533,4.533,0,0,0,3.235,3.3,4.7,4.7,0,0,0,4.575,0" transform="translate(22.074 0.771)" fill="none" stroke="#000639" stroke-miterlimit="10" stroke-width="1"/>
    <g id="Group-3" data-name="Group" transform="translate(0 7.071)">
      <path id="Path-38" data-name="Path" d="M0,0A2.991,2.991,0,0,0,4.284,0" transform="translate(4.181 1.894)" fill="none" stroke="#000639" stroke-linejoin="round" stroke-miterlimit="10" stroke-width="1"/>
      <path id="Path-39" data-name="Path" d="M0,.023l2.956.74" transform="translate(0.486 0.276)" fill="none" stroke="#000" stroke-miterlimit="10" stroke-width="1"/>
    </g>
  </g>
  <path id="Path-40" data-name="Path" d="M102,44.24v71.77L0,141V61.067A61.606,61.606,0,0,1,47.024,1.279h0A44.349,44.349,0,0,1,102,44.24Z" transform="translate(218 95)" fill="#a50b3f"/>
  <g id="Group-4" data-name="Group" transform="translate(165 36)">
    <path id="Path-41" data-name="Path" d="M29.513,50.988s3.234,13.9-6.1,19.516A5.083,5.083,0,0,0,21,74.813c-.088,7.036-1.616,23.3-14,21.1C-3.124,94.116-.232,76.9,3.124,64.831A72.041,72.041,0,0,0,5.669,41.637C4.782,25.186,7.649-2.959,38.328.253a29.313,29.313,0,0,1,12.818,4.31c7.935,5.088,16.8,16.409-1.452,38.547" transform="translate(67.104 0.09)" fill="none" stroke="#000639" stroke-miterlimit="10" stroke-width="1.5"/>
    <path id="Path-42" data-name="Path" d="M0,8.663S20.8,12.685,24.01,0c0,0,1.6,8.985,6.859,10.835" transform="translate(83.845 17.005)" fill="none" stroke="#000639" stroke-miterlimit="10" stroke-width="1.5"/>
    <path id="Path-43" data-name="Path" d="M0,304.058,31.764,0" transform="translate(106.904 173.729)" fill="none" stroke="#000639" stroke-miterlimit="10" stroke-width="1.5"/>
    <path id="Path-44" data-name="Path" d="M66.9,0S-13.54,76.219,1.991,120.109,106.12,99.647,103.133,80.465l-3.019-9.318S112,54.477,106.7,57.571,53.967,79.847,53.967,79.847L70.326,59.427" transform="translate(0.209 80.095)" fill="none" stroke="#000639" stroke-miterlimit="10" stroke-width="1.5"/>
  </g>
  <path id="Path-45" data-name="Path" d="M0,28.726V60C19.942,47.238,41,0,41,0,31.047,10.334,15.51,21.654,0,28.726Z" transform="translate(218 215)" fill="#000639"/>
  <path id="Path-46" data-name="Path" d="M0,57.84s42.553-2.5,67.755,9.985L52.882,22.8S38.835,12.492,48.751,10.828c0,0-4.131-11.233-1.239-10.817s56.187,34.3,60.318,77.149S39.62,119,39.62,119" transform="translate(280 39)" fill="none" stroke="#000639" stroke-miterlimit="10" stroke-width="1.5"/>
  <path id="Path-47" data-name="Path" d="M99,0C44.324,0,0,44.1,0,98.5S44.324,197,99,197s99-44.1,99-98.5H99Z" transform="translate(419 29)" fill="#edeeef"/>
  <path id="Path-48" data-name="Path" d="M0,0C0,54.124,44.324,98,99,98s99-43.876,99-98" transform="translate(419 128)" fill="none" stroke="#000639" stroke-miterlimit="10" stroke-width="1.5"/>
  <path id="Path-49" data-name="Path" d="M98,0H0L78.873,58A97.094,97.094,0,0,0,98,0Z" transform="translate(519 129)" fill="#000639"/>
  <path id="Path-50" data-name="Path" d="M0,0V128H128A128,128,0,0,0,90.51,37.49,128,128,0,0,0,0,0Z" transform="translate(519)" fill="#a50b3f"/>
  <path id="Path-51" data-name="Path" d="M0,.5H128" transform="translate(519 127)" fill="none" stroke="#000" stroke-miterlimit="10" stroke-width="1.5"/>
  <path id="Path-52" data-name="Path" d="M0,0H46V46H0Z" transform="translate(585 325) rotate(-180)" fill="#a50b3f"/>
  <path id="Path-53" data-name="Path" d="M71,35,35.5,0,0,35Z" transform="translate(526 247)" fill="#a50b3f"/>
  <g id="Group-5" data-name="Group" transform="translate(46 64)">
    <path id="Path-54" data-name="Path" d="M0,0H45.91V45.789H0Z" transform="translate(539.281 373.547) rotate(-180)" fill="#edeeef"/>
    <path id="Path-55" data-name="Path" d="M71.085,35.449,35.542,0,0,35.449Z" transform="translate(480.783 295.76)" fill="#edeeef"/>
    <path id="Path-56" data-name="Path" d="M32.658,0A32.558,32.558,0,0,0,0,32.457l65.2.116A32.557,32.557,0,0,0,32.658,0Z" transform="translate(0.111 1.885)" fill="#edeeef"/>
    <path id="Path-57" data-name="Path" d="M18.619,0A18.562,18.562,0,0,0,0,18.5l37.173.066A18.562,18.562,0,0,0,18.619,0Z" transform="translate(82.063 15.983)" fill="#edeeef"/>
    <path id="Path-58" data-name="Path" d="M34.151,0A34.046,34.046,0,0,0,0,33.941l68.181.121A34.046,34.046,0,0,0,34.151,0Z" transform="translate(31.221 0.457)" fill="#edeeef"/>
  </g>
  <path id="Path-59" data-name="Path" d="M0,.346,134,.654" transform="translate(40 98)" fill="none" stroke="#000639" stroke-miterlimit="10" stroke-width="1.5"/>
  <g id="Group-6" data-name="Group" transform="translate(84 149)">
    <path id="Path-60" data-name="Path" d="M14.678,0C22.8-.015,29.394,6.949,29.409,15.555L0,15.611C-.014,7,6.557.015,14.678,0Z" transform="translate(24.943 0.707)" fill="#edeeef"/>
    <path id="Path-61" data-name="Path" d="M8.369,0a8.643,8.643,0,0,1,8.4,8.868L0,8.9A8.647,8.647,0,0,1,8.369,0Z" transform="translate(0.621 7.464)" fill="#edeeef"/>
    <path id="Path-62" data-name="Path" d="M15.349,0c8.492-.016,15.389,7.267,15.4,16.266L0,16.324C-.015,7.325,6.857.016,15.349,0Z" transform="translate(9.567 0.023)" fill="#edeeef"/>
  </g>
  <path id="Path-63" data-name="Path" d="M61,.43,0,.57" transform="translate(81 164)" fill="none" stroke="#000639" stroke-miterlimit="10" stroke-width="1.5"/>
</svg>
