<svg id="Group_7" data-name="Group 7" xmlns="http://www.w3.org/2000/svg" width="46" height="48" viewBox="0 0 46 48">
  <path id="Fill_1" data-name="Fill 1" d="M2.826,2.779H36.174V23.611H39V0H0V45H14.826V42.222h-12Z" fill="#000639"/>
  <path id="Fill_2" data-name="Fill 2" d="M0,0H23V3H0Z" transform="translate(8 18)" fill="#000639"/>
  <path id="Fill_3" data-name="Fill 3" d="M0,0H23V3H0Z" transform="translate(8 11)" fill="#000639"/>
  <path id="Fill_4" data-name="Fill 4" d="M0,0H16V3H0Z" transform="translate(8 24)" fill="#000639"/>
  <path id="Fill_5" data-name="Fill 5" d="M0,0H8V3H0Z" transform="translate(8 31)" fill="#000639"/>
  <path id="Fill_6" data-name="Fill 6" d="M20.561,22H7.44A7.5,7.5,0,0,1,0,14.461a7.575,7.575,0,0,1,1.309-4.28A7.387,7.387,0,0,1,4.748,7.438,5.473,5.473,0,0,1,10.1,2.961a5.366,5.366,0,0,1,1.541.228A7.5,7.5,0,0,1,25.281,7.628a7.115,7.115,0,0,1-.067.961A7.554,7.554,0,0,1,20.561,22ZM10.1,5.733a2.724,2.724,0,0,0-2.7,2.74A1.408,1.408,0,0,1,6.343,9.833a4.764,4.764,0,0,0,1.1,9.383h13.12a4.773,4.773,0,0,0,2.428-8.834,1.405,1.405,0,0,1-.614-1.539,4.781,4.781,0,0,0-8.937-3.311,1.381,1.381,0,0,1-.844.734,1.293,1.293,0,0,1-.393.061,1.363,1.363,0,0,1-.708-.2A2.7,2.7,0,0,0,10.1,5.733Z" transform="translate(18 26)" fill="#000639"/>
</svg>
