<svg xmlns="http://www.w3.org/2000/svg" width="99" height="99" viewBox="0 0 99 99"><g><g opacity=".82"><path fill="#409d77" d="M49.432 0C22.159 0 0 22.16 0 49.432c0 27.273 22.16 49.432 49.432 49.432 27.273 0 49.432-22.16 49.432-49.432C98.864 22.159 76.704 0 49.432 0z"/></g><g><path fill="#fff" d="M56.01 47.4l-12.573-8.96-.05-.05a1.75 1.75 0 0 0-1.732 0 1.65 1.65 0 0 0-.865 1.475v17.97c0 .61.305 1.17.865 1.476.255.153.56.204.866.204.305 0 .61-.102.865-.255l12.625-9.01c.509-.305.814-.865.814-1.425s-.305-1.12-.814-1.426z"/></g></g></svg>