<svg xmlns="http://www.w3.org/2000/svg" width="42" height="41" viewBox="0 0 42 41"><g><g><path fill="#000639" d="M38.358 25.624h-5.769c.303-1.786.458-3.745.383-5.877a35.697 35.697 0 0 0-.411-4.376h5.791a17.28 17.28 0 0 1 .778 5.123 17.105 17.105 0 0 1-.772 5.13zM27.621 36.976c1.56-1.981 3.276-4.817 4.34-8.556h5.254c-2.002 3.879-5.42 6.949-9.594 8.556zM4.79 28.414h5.415c1.08 3.801 2.83 6.664 4.408 8.646-4.277-1.574-7.787-4.689-9.823-8.646zM3.648 15.371h5.951a35.697 35.697 0 0 0-.411 4.376 29.45 29.45 0 0 0 .383 5.877H3.648a17.28 17.28 0 0 1 0-10.253zm10.56-11.286c-1.51 1.918-3.065 4.66-4.042 8.48H4.79c1.973-3.825 5.323-6.857 9.417-8.48zm8.227 8.49V2.852c.046.006.091.006.143.011.942.586 4.59 3.226 6.445 9.712zm-2.864 15.84v9.704c-.835-.665-4.466-3.816-6.364-9.705zm0-25.54v9.705h-6.45c1.841-6.457 5.45-9.086 6.45-9.706zm-7.524 16.96c.051-1.629.211-3.108.44-4.464h7.084v10.247h-7.084a26.223 26.223 0 0 1-.44-5.782zm10.52 18.296c-.046.006-.092.006-.138.011V28.42h6.541c-1.898 5.95-5.58 9.075-6.403 9.711zm7.547-18.295a26.296 26.296 0 0 1-.435 5.788h-7.25V15.37h7.233c.24 1.356.4 2.835.452 4.465zm7.09-7.271H31.99c-.965-3.763-2.49-6.484-3.975-8.396 3.992 1.645 7.253 4.638 9.19 8.396zM21 0C9.422 0 0 9.198 0 20.5S9.422 41 21 41s21-9.198 21-20.5C42 9.192 32.583 0 21 0z"/></g></g></svg>