<svg id="Group_4" data-name="Group 4" xmlns="http://www.w3.org/2000/svg" width="41" height="53" viewBox="0 0 41 53">
  <path id="Fill_1" data-name="Fill 1" d="M16.612,13.475h0L15.376,9.391h-.832l-1.073,4.043-2.484-.646L12.127,8.5,10.706,4.1a14.545,14.545,0,0,1-2.2-1.347A11.582,11.582,0,0,0,3.578,6.778c-1.021,1.606-1.058,4.843-.986,5.954l-2.56.148C0,12.388-.247,8.011,1.407,5.41A14.568,14.568,0,0,1,8.3.07,1.313,1.313,0,0,1,8.72,0a1.3,1.3,0,0,1,.856.322L9.583.33C9.863.568,12.4,2.659,15,2.659h.144c2.734,0,5.431-2.316,5.455-2.339A1.283,1.283,0,0,1,21.451,0a1.312,1.312,0,0,1,.375.055,13.793,13.793,0,0,1,6.989,5.212c1.633,2.57,1.5,7.05,1.478,7.552l-2.566-.1c.042-1.154-.07-4.495-1.088-6.092A11.049,11.049,0,0,0,21.677,2.72a14.662,14.662,0,0,1-2.335,1.418l-1.6,4.246,1.324,4.358-2.457.732ZM13.733,5.1,14.3,6.853h1.3l.646-1.723a7.811,7.811,0,0,1-1.093.081h-.139A8.07,8.07,0,0,1,13.733,5.1Z" transform="translate(5.348 18.864)" fill="#000639"/>
  <path id="Fill_2" data-name="Fill 2" d="M7.576,19.763A7.577,7.577,0,0,1,0,12.2V7.56a7.576,7.576,0,0,1,15.152,0V12.2A7.577,7.577,0,0,1,7.576,19.763Zm0-17.248A5.057,5.057,0,0,0,2.52,7.56h.006v4.648a5.056,5.056,0,0,0,10.112,0V8.435a4.909,4.909,0,0,1-1.724.318,8.777,8.777,0,0,1-3.13-.715,4.7,4.7,0,0,0-1.673-.35,2.08,2.08,0,0,0-1.156.279l-.781-.986-.816-.96a4.4,4.4,0,0,1,2.751-.853,7.21,7.21,0,0,1,2.582.521,6.278,6.278,0,0,0,2.192.544,2.93,2.93,0,0,0,1.437-.408A5.077,5.077,0,0,0,7.576,2.515Z" transform="translate(12.478)" fill="#000639"/>
  <path id="Fill_3" data-name="Fill 3" d="M34.384,27.848H6.9a1.284,1.284,0,0,1-1.271-1.293V16H1.272A1.284,1.284,0,0,1,0,14.71V9.439A1.284,1.284,0,0,1,1.272,8.146h8.914V4.485a1.3,1.3,0,0,1,.372-.916L14.067,0l1.8,1.831L12.73,5.022V8.151h16.5V5.022L26.089,1.831,27.889,0,31.4,3.569a1.314,1.314,0,0,1,.372.916V8.146h7.959A1.284,1.284,0,0,1,41,9.439v5.27A1.284,1.284,0,0,1,39.729,16H35.655V26.555A1.284,1.284,0,0,1,34.384,27.848ZM12.262,19.339H29.7a1.284,1.284,0,0,1,1.272,1.293v4.629h2.14V16H8.168v9.258H10.99V20.632A1.284,1.284,0,0,1,12.262,19.339Zm1.271,2.586v3.336h14.9V21.925ZM2.543,10.733v2.685H38.457V10.733Z" transform="translate(0 25.153)" fill="#000639"/>
</svg>
