<svg xmlns="http://www.w3.org/2000/svg" width="38" height="54" viewBox="0 0 38 54"><g><g><path fill="#b5b5b5" d="M16.954 35.026l-4.916.708 3.556 3.446-.837 4.863 4.4-2.297 4.399 2.297-.837-4.863 3.556-3.446-4.916-.708-2.202-4.424zm7.371-17.687h-5.574L28.054 3.06h5.574zm-9.95 5.773v-2.713h10.26v2.902a15.599 15.599 0 0 0-10.26-.189zM32.25 37.995c0 7.111-5.827 12.903-12.995 12.903-7.162 0-12.995-5.786-12.995-12.903 0-7.118 5.827-12.903 12.995-12.903 7.168 0 12.995 5.785 12.995 12.903zM9.946 3.06l7.223 11.076-2.086 3.202h-1.402L4.377 3.06zM37.812.8c-.27-.495-.788-.8-1.354-.8h-9.241c-.523 0-1.01.262-1.292.695l-6.922 10.625C11.533-.147 11.927 0 10.783 0H1.54C.975-.001.458.305.187.8A1.52 1.52 0 0 0 .25 2.363l11.05 16.96v5.181c-13.856 8.089-8.017 29.142 7.956 29.142 15.647 0 21.757-20.387 8.473-28.836 0-6.061.123-6.147-.222-6.727l10.25-15.726c.302-.47.327-1.069.056-1.558z"/></g></g></svg>