<svg id="Group_11" data-name="Group 11" xmlns="http://www.w3.org/2000/svg" width="42.106" height="48" viewBox="0 0 42.106 48">
  <path id="Fill_1" data-name="Fill 1" d="M32.652,42.947H0V4.424H4.4V0H37.053V38.524h-4.4v4.423ZM2.366,6.8V40.568h27.92V38.524H4.4V6.8Zm4.4-4.424V36.145h27.92V2.379Z" transform="translate(5.053)" fill="#000639"/>
  <path id="Fill_2" data-name="Fill 2" d="M30.462,36.345H2.38V2.392h.381V0H0V38.737H32.842V35.962h-2.38Z" transform="translate(0 9.263)" fill="#000639"/>
  <path id="Fill_3" data-name="Fill 3" d="M0,0H9.263V2.526H0Z" transform="translate(16 15.158)" fill="#000639"/>
  <path id="Fill_4" data-name="Fill 4" d="M0,0H9.263V2.526H0Z" transform="translate(16 8.421)" fill="#000639"/>
  <path id="Fill_5" data-name="Fill 5" d="M0,0H9.263V2.526H0Z" transform="translate(16 22.737)" fill="#000639"/>
  <path id="Fill_6" data-name="Fill 6" d="M0,0H9.263V2.526H0Z" transform="translate(16 29.474)" fill="#000639"/>
  <path id="Fill_7" data-name="Fill 7" d="M1.317,5.053H5.053V2.418H2.634V0H0V3.735A1.318,1.318,0,0,0,1.317,5.053Z" transform="translate(31.158 5.895)" fill="#000639"/>
  <path id="Fill_8" data-name="Fill 8" d="M1.317,4.211H5.053v-2.2H2.634V0H0V3.113A1.223,1.223,0,0,0,1.317,4.211Z" transform="translate(31.158 13.474)" fill="#000639"/>
  <path id="Fill_9" data-name="Fill 9" d="M1.317,4.211H5.053v-2.2H2.634V0H0V3.113A1.223,1.223,0,0,0,1.317,4.211Z" transform="translate(31.158 21.053)" fill="#000639"/>
  <path id="Fill_10" data-name="Fill 10" d="M1.317,4.211H5.053v-2.2H2.634V0H0V3.113A1.223,1.223,0,0,0,1.317,4.211Z" transform="translate(31.158 28.632)" fill="#000639"/>
</svg>
