<svg xmlns="http://www.w3.org/2000/svg" width="539" height="511" viewBox="0 0 539 511"><g><g><g><path fill="#000639" d="M129 112L1 157l128 45 128-45z"/></g><g><path fill="none" stroke="#000" stroke-miterlimit="20" stroke-width="1.5" d="M1 157v0l128 45v0l128-45v0"/></g><g><path fill="#edeeef" d="M129 56L1 101l128 45 128-45z"/></g><g><path fill="none" stroke="#000" stroke-miterlimit="20" stroke-width="1.5" d="M1 101v0l128 45v0l128-45v0"/></g><g><path fill="#a50b3f" d="M129 0L1 45l128 45 128-45z"/></g><g><path fill="none" stroke="#000" stroke-miterlimit="20" stroke-width="1.5" d="M1 45v0l128 45v0l128-45v0"/></g><g><path fill="#ebebeb" d="M60.259 457.25l18.11 15.78 48.295-61.96 21.734 18.248L263.098 278 364.52 457.25l27.77-30.786L443 510H18z"/></g><g><path fill="none" stroke="#000" stroke-miterlimit="20" stroke-width="1.5" d="M459 509.5H3"/></g><g><path fill="#a50b3f" d="M339.355 195s-82.55 141.68-110.174 281.847L219 482.845 267.686 499s107.85-162.91 114.295-183.592C388.427 294.726 377.377 195 377.377 195"/></g><g><path fill="#000639" d="M361.241 259s-13.238 68.333-9.612 111c13.888-22.49 25.166-41.59 29.371-50.758z"/></g><g><path fill="#edeeef" d="M363 42.948v26.104L396 77V32.948L363 25z"/></g><g><path d="M382 52a1 1 0 1 0 0-2 1 1 0 0 0 0 2z"/></g><g><path d="M369 52a1 1 0 1 0 0-2 1 1 0 0 0 0 2z"/></g><g><g><path fill="none" stroke="#000" stroke-miterlimit="20" stroke-width="1.5" d="M371.993 55.537v0V42.82v0h-6.813v0"/></g><g><path fill="none" stroke="#000" stroke-miterlimit="20" stroke-width="1.5" d="M383.233 42.824h-6.813"/></g><g><path fill="none" stroke="#000" stroke-miterlimit="20" stroke-width="1.5" d="M364.129 40.744v0"/></g></g><g><path fill="#edeeef" d="M394 49.302V54c1.06 0 2.078-.483 2.828-1.344.75-.86 1.172-2.028 1.172-3.245 0-.14-.005-.28-.016-.418-.224-2.85-3.984-2.553-3.984.309z"/></g><g><g><g><path fill="none" stroke="#000" stroke-miterlimit="20" d="M393.35 54.39c1.193 0 2.338-.48 3.181-1.333a4.576 4.576 0 0 0 1.318-3.217"/></g><g><path fill="none" stroke="#000" stroke-miterlimit="20" d="M389.46 75.64l6.01 1.494"/></g><g><path fill="none" stroke="#000" stroke-linecap="round" stroke-miterlimit="20" d="M372.12 56.282l2.907.723"/></g><g><path fill="none" stroke="#000" stroke-miterlimit="20" d="M363.277 50.2v0s-6.462 19.16 2.198 25.435c8.66 6.274 34.41 2.618 27.426-23.096"/></g><g><path fill="none" stroke="#000" stroke-miterlimit="20" d="M367.099 56.619a1.325 1.325 0 0 0-.057 1.296c.208.411.616.682 1.072.712 1.861.42 4.675-3.285 7.11-1.268 0 0 .546-2.847 6.61-1.144 6.062 1.703 3.981-2.345 3.981-2.345v0"/></g></g><g><path fill="none" stroke="#000639" stroke-linecap="round" stroke-linejoin="round" stroke-miterlimit="20" d="M374.5 59.92c2.285 1.062 4.99.05 6.04-2.26"/></g><g><g><path fill="none" stroke="#000" stroke-miterlimit="20" d="M360.96 33.6v0s2.183 9.493 22.124 3.853c0 0 1.206 5.17 4.638 5.405 3.433.235 3.29 3.706 3.29 3.706v0"/></g><g><path fill="none" stroke="#000" stroke-miterlimit="20" d="M363.282 42.852v0s-20.815-18.158 3.633-19.078c24.448-.92 37.684 6.745 28.69 23.676"/></g></g></g><g><path fill="#edeeef" d="M340 123.927v71.26L441 220v-79.366c0-28.141-19.221-52.647-46.563-59.364a43.964 43.964 0 0 0-37.604 8.087A43.918 43.918 0 0 0 340 123.927z"/></g><g><path fill="#a50b3f" d="M440.17 219.496L361.344 200s-5.305 192.826 25.819 297.548L381.985 508h51.671s10.28-246.316 6.515-288.504z"/></g><g><g><path fill="none" stroke="#000" stroke-miterlimit="20" stroke-width="1.5" d="M360.656 199.85s-5.357 192.376 26.077 296.853"/></g><g><path fill="none" stroke="#000" stroke-miterlimit="20" stroke-width="1.5" d="M408.52 86.76v0s60.911 35.748 59.06 95.251c-1.852 59.503-45.052 83.427-45.052 83.427v0"/></g><g><path fill="none" stroke="#000" stroke-miterlimit="20" stroke-width="1.5" d="M406.49 232.62s8.949 32.512 24.069 39.26"/></g><g><path fill="none" stroke="#000" stroke-miterlimit="20" stroke-width="1.5" d="M398.17 146.84v0l32.382 39.26v0l-23.256 49.208v0"/></g></g><g><path fill="#000639" d="M408.651 232L430 187.116 405 157s15.231 45.02 3.651 75z"/></g><g><path fill="none" stroke="#000" stroke-miterlimit="20" stroke-width="1.5" d="M351 95.511v0l-43.068 34.213v0S258.29 66.277 247.321 62.91C236.352 59.544 223 66.596 223 66.596v4.167l12.7 2.316v0s-1.871 14.826 6.21 21.774c0 0 25.056 91.854 62.674 92.143 25.722.198 35.312-6.962 35.312-6.962v0"/></g><g><path fill="none" stroke="#000" stroke-miterlimit="20" stroke-width="1.5" d="M268 509.5h271"/></g><g><path fill="#000639" d="M506.571 506.87s4.675-8.251-7.192-10.045a38.984 38.984 0 0 0-20.858 2.511s8.27-10.045-4.676-14.35c-12.946-4.306-26.252 5.74-26.252 5.74s12.946-24.038 2.877-25.831c-10.07-1.794-15.464 8.61-15.464 8.61s1.08-29.778-19.779-30.495c-20.858-.718-18.7 38.029-18.7 38.029s-8.99-17.22-24.095-17.938c-15.104-.718-7.552 28.846-7.552 28.846s-2.877-6.962-12.946-7.68c-10.07-.717-9.35 7.703-9.35 7.703s-12.947-18.106-27.332-17.03c-14.384 1.076-8.27 19.015-8.27 19.015C292.236 492.878 289 509 289 509h228z"/></g></g></g></svg>